ply
format ascii 1.0
comment Created by Blender 2.69 (sub 0) - www.blender.org, source file: 'coffin.blend'
element vertex 84
property float x
property float y
property float z
property float nx
property float ny
property float nz
property float s
property float t
element face 22
property list uchar uint vertex_indices
end_header
1.000000 1.606120 -0.000000 0.000000 -0.000000 -1.000000 0.717731 0.249851
1.000000 -1.606120 0.000000 0.000000 -0.000000 -1.000000 0.405332 0.250802
-0.690000 -1.000000 0.000000 0.000000 -0.000000 -1.000000 0.463775 0.087448
-0.690000 1.000000 -0.000000 0.000000 -0.000000 -1.000000 0.658280 0.086856
6.033202 0.963672 -0.000000 0.000000 -0.000000 -1.000000 0.656753 0.736012
6.033202 -0.963672 0.000000 0.000000 -0.000000 -1.000000 0.469313 0.736583
1.000000 1.606120 -0.000000 0.126615 0.991952 0.000000 0.770232 0.160523
1.000000 1.606120 1.500000 0.126615 0.991952 0.000000 0.876096 0.160845
6.033202 0.963672 1.500000 0.126615 0.991952 0.000000 0.875000 0.515478
6.033202 0.963672 -0.000000 0.126615 0.991952 0.000000 0.769137 0.515156
6.033202 0.963672 -0.000000 1.000000 -0.000000 0.000000 0.132710 0.881130
6.033202 0.963672 1.500000 1.000000 -0.000000 0.000000 0.218288 0.880869
6.033202 -0.963672 1.500000 1.000000 -0.000000 0.000000 0.218625 0.990036
6.033202 -0.963672 0.000000 1.000000 -0.000000 0.000000 0.133048 0.990296
6.033202 -0.963672 0.000000 0.126615 -0.991952 0.000000 0.876454 0.044992
6.033202 -0.963672 1.500000 0.126615 -0.991952 0.000000 0.982318 0.044670
1.000000 -1.606120 1.500000 0.126615 -0.991952 0.000000 0.983414 0.399303
1.000000 -1.606120 0.000000 0.126615 -0.991952 0.000000 0.877550 0.399625
-0.690000 -1.000000 0.000000 -1.000000 0.000000 0.000000 0.218975 0.880869
-0.690000 -1.000000 1.500000 -1.000000 0.000000 0.000000 0.304553 0.881130
-0.690000 1.000000 1.500000 -1.000000 0.000000 0.000000 0.304203 0.994412
-0.690000 1.000000 -0.000000 -1.000000 0.000000 0.000000 0.218625 0.994151
1.000000 1.606120 1.500000 -0.337595 0.941292 0.000000 0.876096 0.160845
1.000000 1.606120 -0.000000 -0.337595 0.941292 0.000000 0.770232 0.160523
-0.690000 1.000000 -0.000000 -0.337595 0.941292 0.000000 0.770590 0.044670
-0.690000 1.000000 1.500000 -0.337595 0.941292 0.000000 0.876454 0.044992
1.000000 -1.606120 0.000000 -0.337595 -0.941292 0.000000 0.877550 0.399625
1.000000 -1.606120 1.500000 -0.337595 -0.941292 0.000000 0.983414 0.399303
-0.690000 -1.000000 1.500000 -0.337595 -0.941292 0.000000 0.983772 0.515156
-0.690000 -1.000000 0.000000 -0.337595 -0.941292 0.000000 0.877908 0.515478
-0.690000 -1.000000 1.500000 0.124632 0.347502 0.929360 0.077552 0.782929
1.000000 -1.606120 1.500000 0.124632 0.347502 0.929360 0.009524 0.592781
1.073647 -1.499977 1.450435 0.124632 0.347502 0.929360 0.021565 0.584540
-0.504667 -0.933913 1.450435 0.124632 0.347502 0.929360 0.085098 0.762122
1.000000 1.606120 1.500000 0.124632 -0.347502 0.929360 0.373164 0.593888
-0.690000 1.000000 1.500000 0.124632 -0.347502 0.929360 0.303962 0.783619
-0.504667 0.933914 1.450435 0.124632 -0.347502 0.929360 0.296545 0.762767
1.073647 1.499977 1.450435 0.124632 -0.347502 0.929360 0.361174 0.585575
-0.690000 1.000000 1.500000 0.258357 -0.000000 0.966050 0.303962 0.783619
-0.690000 -1.000000 1.500000 0.258357 -0.000000 0.966050 0.077552 0.782929
-0.504667 -0.933913 1.450435 0.258357 -0.000000 0.966050 0.085098 0.762122
-0.504667 0.933914 1.450435 0.258357 -0.000000 0.966050 0.296545 0.762767
1.000000 -1.606120 1.500000 -0.058104 0.455207 0.888488 0.009524 0.592781
6.033202 -0.963672 1.500000 -0.058104 0.455207 0.888488 0.084000 0.027320
5.774222 -0.899986 1.450435 -0.058104 0.455207 0.888488 0.091119 0.056448
1.073647 -1.499977 1.450435 -0.058104 0.455207 0.888488 0.021565 0.584540
6.033202 -0.963672 1.500000 -0.187973 0.000000 0.982174 0.084000 0.027320
6.033202 0.963672 1.500000 -0.187973 0.000000 0.982174 0.302184 0.027984
5.774222 0.899986 1.450435 -0.187973 0.000000 0.982174 0.294885 0.057069
5.774222 -0.899986 1.450435 -0.187973 0.000000 0.982174 0.091119 0.056448
6.033202 0.963672 1.500000 -0.058104 -0.455207 0.888488 0.302184 0.027984
1.000000 1.606120 1.500000 -0.058104 -0.455207 0.888488 0.373164 0.593888
1.073647 1.499977 1.450435 -0.058104 -0.455207 0.888488 0.361174 0.585575
5.774222 0.899986 1.450435 -0.058104 -0.455207 0.888488 0.294885 0.057069
-0.504667 -0.933913 0.049565 0.000000 0.000000 1.000000 0.090821 0.751355
1.073647 -1.499977 0.049565 0.000000 0.000000 1.000000 0.030360 0.582360
1.073647 1.499977 0.049565 0.000000 0.000000 1.000000 0.353548 0.583344
-0.504667 0.933914 0.049565 0.000000 0.000000 1.000000 0.292044 0.751968
5.774222 -0.899986 0.049565 -0.000000 0.000000 1.000000 0.096551 0.079802
5.774222 0.899986 0.049565 -0.000000 0.000000 1.000000 0.290464 0.080393
5.774222 0.899986 1.450435 -0.126615 -0.991952 0.000000 0.878404 0.541003
1.073647 1.499977 1.450435 -0.126615 -0.991952 0.000000 0.877377 0.873308
1.073647 1.499977 0.049565 -0.126615 -0.991952 0.000000 0.776749 0.873001
5.774222 0.899986 0.049565 -0.126615 -0.991952 0.000000 0.777776 0.540696
5.774222 -0.899986 1.450435 -1.000000 0.000000 0.000000 0.115599 0.881112
5.774222 0.899986 1.450435 -1.000000 0.000000 0.000000 0.115284 0.983065
5.774222 0.899986 0.049565 -1.000000 0.000000 0.000000 0.035362 0.982821
5.774222 -0.899986 0.049565 -1.000000 0.000000 0.000000 0.035677 0.880869
1.073647 -1.499977 1.450435 -0.126615 0.991952 0.000000 0.990862 0.655338
5.774222 -0.899986 1.450435 -0.126615 0.991952 0.000000 0.991889 0.987642
5.774222 -0.899986 0.049565 -0.126615 0.991952 0.000000 0.891261 0.987949
1.073647 -1.499977 0.049565 -0.126615 0.991952 0.000000 0.890234 0.655644
-0.504667 0.933914 1.450435 1.000000 -0.000000 0.000000 0.401889 0.881112
-0.504667 -0.933913 1.450435 1.000000 -0.000000 0.000000 0.401562 0.986908
-0.504667 -0.933913 0.049565 1.000000 -0.000000 0.000000 0.321640 0.986665
-0.504667 0.933914 0.049565 1.000000 -0.000000 0.000000 0.321967 0.880869
-0.504667 0.933914 0.049565 0.337595 -0.941291 0.000000 0.776395 0.987642
1.073647 1.499977 0.049565 0.337595 -0.941291 0.000000 0.776749 0.873001
1.073647 1.499977 1.450435 0.337595 -0.941291 0.000000 0.877377 0.873308
-0.504667 0.933914 1.450435 0.337595 -0.941291 0.000000 0.877023 0.987949
-0.504667 -0.933913 1.450435 0.337595 0.941291 0.000000 0.990508 0.540696
1.073647 -1.499977 1.450435 0.337595 0.941291 0.000000 0.990862 0.655338
1.073647 -1.499977 0.049565 0.337595 0.941291 0.000000 0.890234 0.655644
-0.504667 -0.933913 0.049565 0.337595 0.941291 0.000000 0.889880 0.541003
4 0 1 2 3
4 0 4 5 1
4 6 7 8 9
4 10 11 12 13
4 14 15 16 17
4 18 19 20 21
4 22 23 24 25
4 26 27 28 29
4 30 31 32 33
4 34 35 36 37
4 38 39 40 41
4 42 43 44 45
4 46 47 48 49
4 50 51 52 53
4 54 55 56 57
4 58 59 56 55
4 60 61 62 63
4 64 65 66 67
4 68 69 70 71
4 72 73 74 75
4 76 77 78 79
4 80 81 82 83
