ply
format ascii 1.0
comment Created by Blender 2.69 (sub 0) - www.blender.org, source file: 'comodino.blend'
element vertex 174
property float x
property float y
property float z
property float nx
property float ny
property float nz
property float s
property float t
property uchar red
property uchar green
property uchar blue
element face 68
property list uchar uint vertex_indices
end_header
-0.032205 0.014018 0.584923 -0.508927 0.198737 0.837519 0.775564 0.918733 255 255 255
-0.030169 -0.163032 0.581998 -0.516373 -0.239051 0.822291 0.776892 0.814050 255 255 255
0.072927 -0.164162 0.574950 0.010163 -0.318583 0.947813 0.848606 0.812672 255 255 255
0.073679 0.009222 0.580202 0.003143 0.107395 0.994201 0.849934 0.917355 255 255 255
0.196098 0.027460 0.576242 0.551561 0.721519 0.418500 0.929615 0.931129 255 255 255
0.196098 0.027460 0.551847 0.573717 0.759239 -0.307169 0.929615 0.955923 255 255 255
-0.035387 0.027460 0.551847 -0.537767 0.799982 -0.266060 0.776892 0.954545 255 255 255
-0.035387 0.027460 0.576242 -0.569475 0.683798 0.456130 0.776892 0.929752 255 255 255
0.187977 -0.175563 0.550887 0.343944 -0.927824 -0.144261 0.930943 0.768595 255 255 255
0.187983 -0.174923 0.569634 0.524186 -0.750725 0.401990 0.929615 0.786501 255 255 255
0.081230 -0.178105 0.567465 0.002991 -0.914548 0.404401 0.853918 0.782369 255 255 255
0.080355 -0.175778 0.549789 0.003540 -0.963347 -0.268136 0.853918 0.768595 255 255 255
0.186695 -0.164433 0.580871 0.507675 -0.291086 0.810846 0.925631 0.812672 255 255 255
0.195334 -0.168019 0.550921 0.929594 -0.366344 -0.040101 0.961487 0.786501 255 255 255
0.200841 0.010939 0.550950 0.976531 0.076205 -0.201361 0.968127 0.917355 255 255 255
0.196098 0.014018 0.584923 0.574786 0.206641 0.791772 0.930943 0.920110 255 255 255
-0.031888 -0.178105 0.569634 -0.531754 -0.750175 0.392956 0.779548 0.786501 255 255 255
-0.042187 0.009878 0.550950 -0.985168 0.142125 -0.096042 0.738380 0.917355 255 255 255
-0.037810 -0.171097 0.550112 -0.882168 -0.459426 -0.103092 0.742364 0.786501 255 255 255
-0.042187 0.009878 0.550950 -0.985168 0.142125 -0.096042 0.759628 0.953168 255 255 255
-0.031440 -0.175563 0.549826 -0.286569 -0.921171 -0.263192 0.747676 0.774105 255 255 255
-0.031888 -0.178105 0.569634 -0.531754 -0.750175 0.392956 0.764940 0.786501 255 255 255
0.200841 0.010939 0.550950 0.976531 0.076205 -0.201361 0.948207 0.954545 255 255 255
0.187983 -0.174923 0.569634 0.524186 -0.750725 0.401990 0.938911 0.787879 255 255 255
0.187977 -0.175563 0.550887 0.343944 -0.927824 -0.144261 0.960159 0.774105 255 255 255
-0.037771 0.008581 0.542075 -0.911222 0.170629 -0.374859 0.725100 0.914601 255 255 255
-0.037771 -0.167372 0.541895 -0.860622 -0.392010 -0.324992 0.729084 0.789256 255 255 255
0.195474 -0.167372 0.541895 0.880490 -0.415967 -0.227241 0.978752 0.789256 255 255 255
0.191974 0.008581 0.542075 0.859462 0.055422 -0.508164 0.988048 0.913223 255 255 255
0.192482 0.021604 0.542075 0.498367 0.563952 -0.658437 0.926959 0.965565 255 255 255
-0.031772 0.021604 0.542075 -0.458968 0.685385 -0.565264 0.779548 0.965565 255 255 255
0.192482 -0.170713 0.539437 0.455367 -0.867580 -0.199744 0.928287 0.757576 255 255 255
-0.037771 0.008581 0.542075 -0.911222 0.170629 -0.374859 0.767596 0.968320 255 255 255
-0.031772 -0.170713 0.539437 -0.284951 -0.870876 -0.400403 0.731740 0.775482 255 255 255
0.191974 0.008581 0.542075 0.859462 0.055422 -0.508164 0.933599 0.973829 255 255 255
0.192482 -0.170713 0.539437 0.455367 -0.867580 -0.199744 0.976096 0.775482 255 255 255
-0.031440 -0.175563 0.549826 -0.286569 -0.921171 -0.263192 0.776892 0.767218 255 255 255
-0.031772 -0.170713 0.539437 -0.284951 -0.870876 -0.400403 0.780877 0.757576 255 255 255
0.026296 -0.283264 0.397367 0.000000 0.340695 -0.940174 0.216206 0.833785 255 255 255
-0.022280 -0.283264 0.397367 0.000000 0.340695 -0.940174 0.179956 0.817433 255 255 255
-0.005794 -0.237769 0.413854 0.000000 0.340695 -0.940174 0.208548 0.786871 255 255 255
0.009810 -0.237769 0.413854 0.000000 0.340695 -0.940174 0.220193 0.792124 255 255 255
0.009810 -0.237769 0.429457 0.000000 0.340697 0.940173 0.232622 0.789175 255 255 255
-0.005794 -0.237769 0.429457 0.000000 0.340697 0.940173 0.240666 0.779251 255 255 255
-0.022280 -0.283264 0.445944 0.000000 0.340697 0.940173 0.279968 0.793705 255 255 255
0.026296 -0.283264 0.445944 0.000000 0.340697 0.940173 0.254899 0.824605 255 255 255
-0.022280 -0.283264 0.397367 -0.940174 0.340694 0.000001 0.280911 0.753955 255 255 255
-0.022280 -0.283264 0.445944 -0.940174 0.340694 0.000001 0.279968 0.793705 255 255 255
-0.005794 -0.237769 0.429457 -0.940174 0.340694 0.000001 0.240666 0.779251 255 255 255
-0.005794 -0.237769 0.413854 -0.940174 0.340694 0.000001 0.240977 0.766481 255 255 255
0.009810 -0.237769 0.413854 0.940174 0.340694 -0.000000 0.220193 0.792124 255 255 255
0.009810 -0.237769 0.429457 0.940174 0.340694 -0.000000 0.232622 0.789175 255 255 255
0.026296 -0.283264 0.445944 0.940174 0.340694 -0.000000 0.254899 0.824605 255 255 255
0.026296 -0.283264 0.397367 0.940174 0.340694 -0.000000 0.216206 0.833785 255 255 255
-0.022280 -0.283264 0.397367 0.000000 -1.000000 -0.000000 0.279968 0.793705 255 255 255
0.026296 -0.283264 0.397367 0.000000 -1.000000 -0.000000 0.319728 0.794640 255 255 255
0.026296 -0.283264 0.445944 0.000000 -1.000000 -0.000000 0.318781 0.834427 255 255 255
-0.022280 -0.283264 0.445944 0.000000 -1.000000 -0.000000 0.279025 0.833455 255 255 255
-0.209406 -0.199630 -0.397438 0.000000 0.990188 -0.139743 0.053121 0.842975 255 255 255
-0.174752 -0.199630 -0.397438 0.000000 0.990188 -0.139743 0.086321 0.837466 255 255 255
-0.185148 -0.210026 -0.471103 0.000000 0.990188 -0.139743 0.063745 0.767218 255 255 255
-0.199009 -0.210026 -0.471103 0.000000 0.990188 -0.139743 0.050465 0.769972 255 255 255
-0.174752 -0.234284 -0.397438 0.000000 -0.990188 -0.139742 0.086321 0.837466 255 255 255
-0.209406 -0.234284 -0.397438 0.000000 -0.990188 -0.139742 0.053121 0.842975 255 255 255
-0.199009 -0.223888 -0.471103 0.000000 -0.990188 -0.139742 0.050465 0.769972 255 255 255
-0.185148 -0.223888 -0.471103 0.000000 -0.990188 -0.139742 0.063745 0.767218 255 255 255
-0.174752 -0.199630 -0.397438 0.990188 0.000000 -0.139742 0.086321 0.837466 255 255 255
-0.174752 -0.234284 -0.397438 0.990188 0.000000 -0.139742 0.086321 0.837466 255 255 255
-0.185148 -0.223888 -0.471103 0.990188 0.000000 -0.139742 0.063745 0.767218 255 255 255
-0.185148 -0.210026 -0.471103 0.990188 0.000000 -0.139742 0.063745 0.767218 255 255 255
-0.209406 -0.234284 -0.397438 -0.990188 0.000000 -0.139743 0.053121 0.842975 255 255 255
-0.209406 -0.199630 -0.397438 -0.990188 0.000000 -0.139743 0.053121 0.842975 255 255 255
-0.199009 -0.210026 -0.471103 -0.990188 0.000000 -0.139743 0.050465 0.769972 255 255 255
-0.199009 -0.223888 -0.471103 -0.990188 0.000000 -0.139743 0.050465 0.769972 255 255 255
0.213421 -0.234284 -0.397438 -0.990188 0.000000 0.139743 0.098274 0.761708 255 255 255
0.213421 -0.199630 -0.397438 -0.990188 0.000000 0.139743 0.098274 0.761708 255 255 255
0.203025 -0.210026 -0.471103 -0.990188 0.000000 0.139743 0.100930 0.834711 255 255 255
0.203025 -0.223888 -0.471103 -0.990188 0.000000 0.139743 0.100930 0.834711 255 255 255
0.178767 -0.199630 -0.397438 0.990188 0.000000 0.139742 0.063745 0.767218 255 255 255
0.178767 -0.234284 -0.397438 0.990188 0.000000 0.139742 0.063745 0.767218 255 255 255
0.189163 -0.223888 -0.471103 0.990188 0.000000 0.139742 0.087649 0.837466 255 255 255
0.189163 -0.210026 -0.471103 0.990188 0.000000 0.139742 0.087649 0.837466 255 255 255
0.178767 -0.234284 -0.397438 0.000000 0.990188 0.139742 0.063745 0.767218 255 255 255
0.213421 -0.234284 -0.397438 0.000000 0.990188 0.139742 0.098274 0.761708 255 255 255
0.203025 -0.223888 -0.471103 0.000000 0.990188 0.139742 0.100930 0.834711 255 255 255
0.189163 -0.223888 -0.471103 0.000000 0.990188 0.139742 0.087649 0.837466 255 255 255
0.213421 -0.199630 -0.397438 0.000000 -0.990188 0.139743 0.098274 0.761708 255 255 255
0.178767 -0.199630 -0.397438 0.000000 -0.990188 0.139743 0.063745 0.767218 255 255 255
0.189163 -0.210026 -0.471103 0.000000 -0.990188 0.139743 0.087649 0.837466 255 255 255
0.203025 -0.210026 -0.471103 0.000000 -0.990188 0.139743 0.100930 0.834711 255 255 255
0.213421 0.050735 -0.397438 0.000000 -0.990188 -0.139742 0.086321 0.837466 255 255 255
0.178767 0.050735 -0.397438 0.000000 -0.990188 -0.139742 0.053121 0.842975 255 255 255
0.189163 0.061131 -0.471103 0.000000 -0.990188 -0.139742 0.050465 0.769972 255 255 255
0.203025 0.061131 -0.471103 0.000000 -0.990188 -0.139742 0.063745 0.767218 255 255 255
0.178767 0.085389 -0.397438 0.000000 0.990188 -0.139743 0.053121 0.842975 255 255 255
0.213421 0.085389 -0.397438 0.000000 0.990188 -0.139743 0.086321 0.837466 255 255 255
0.203025 0.074993 -0.471103 0.000000 0.990188 -0.139743 0.063745 0.767218 255 255 255
0.189163 0.074993 -0.471103 0.000000 0.990188 -0.139743 0.050465 0.769972 255 255 255
0.178767 0.050735 -0.397438 -0.990188 0.000000 -0.139742 0.053121 0.842975 255 255 255
0.178767 0.085389 -0.397438 -0.990188 0.000000 -0.139742 0.053121 0.842975 255 255 255
0.189163 0.074993 -0.471103 -0.990188 0.000000 -0.139742 0.050465 0.769972 255 255 255
0.189163 0.061131 -0.471103 -0.990188 0.000000 -0.139742 0.050465 0.769972 255 255 255
0.213421 0.085389 -0.397438 0.990188 0.000000 -0.139743 0.086321 0.837466 255 255 255
0.213421 0.050735 -0.397438 0.990188 0.000000 -0.139743 0.086321 0.837466 255 255 255
0.203025 0.061131 -0.471103 0.990188 0.000000 -0.139743 0.063745 0.767218 255 255 255
0.203025 0.074993 -0.471103 0.990188 0.000000 -0.139743 0.063745 0.767218 255 255 255
-0.209406 0.085389 -0.397438 0.990188 0.000000 0.139743 0.053121 0.842975 255 255 255
-0.209406 0.050735 -0.397438 0.990188 0.000000 0.139743 0.053121 0.842975 255 255 255
-0.199009 0.061131 -0.471103 0.990188 0.000000 0.139743 0.050465 0.769972 255 255 255
-0.199009 0.074993 -0.471103 0.990188 0.000000 0.139743 0.050465 0.769972 255 255 255
-0.174752 0.050735 -0.397438 -0.990188 0.000000 0.139742 0.086321 0.837466 255 255 255
-0.174752 0.085389 -0.397438 -0.990188 0.000000 0.139742 0.086321 0.837466 255 255 255
-0.185148 0.074993 -0.471103 -0.990188 0.000000 0.139742 0.063745 0.767218 255 255 255
-0.185148 0.061131 -0.471103 -0.990188 0.000000 0.139742 0.063745 0.767218 255 255 255
-0.174752 0.085389 -0.397438 0.000000 -0.990188 0.139743 0.086321 0.837466 255 255 255
-0.209406 0.085389 -0.397438 0.000000 -0.990188 0.139743 0.053121 0.842975 255 255 255
-0.199009 0.074993 -0.471103 0.000000 -0.990188 0.139743 0.050465 0.769972 255 255 255
-0.185148 0.074993 -0.471103 0.000000 -0.990188 0.139743 0.063745 0.767218 255 255 255
-0.209406 0.050735 -0.397438 0.000000 0.990188 0.139742 0.053121 0.842975 255 255 255
-0.174752 0.050735 -0.397438 0.000000 0.990188 0.139742 0.086321 0.837466 255 255 255
-0.185148 0.061131 -0.471103 0.000000 0.990188 0.139742 0.063745 0.767218 255 255 255
-0.199009 0.061131 -0.471103 0.000000 0.990188 0.139742 0.050465 0.769972 255 255 255
0.231386 0.093390 0.540916 0.000000 -0.000000 1.000000 0.716148 0.991810 255 255 255
-0.227370 0.093390 0.540916 0.000000 -0.000000 1.000000 0.366958 0.991811 255 255 255
-0.227370 -0.242285 0.540916 0.000000 -0.000000 1.000000 0.366958 0.736305 255 255 255
0.231386 -0.242285 0.540916 0.000000 -0.000000 1.000000 0.716148 0.736305 255 255 255
0.231386 0.093390 -0.402755 1.000000 -0.000000 0.000000 0.971653 0.018014 255 255 255
0.231386 0.093390 0.540916 1.000000 -0.000000 0.000000 0.971653 0.736305 255 255 255
0.231386 -0.242285 0.540916 1.000000 -0.000000 0.000000 0.716148 0.736305 255 255 255
0.231386 -0.242285 -0.402755 1.000000 -0.000000 0.000000 0.716148 0.018014 255 255 255
0.231386 -0.242285 -0.402755 -0.000000 -1.000000 -0.000000 0.716148 0.018014 255 255 255
0.231386 -0.242285 0.540916 -0.000000 -1.000000 -0.000000 0.716148 0.736305 255 255 255
-0.227370 -0.242285 0.540916 -0.000000 -1.000000 -0.000000 0.366958 0.736305 255 255 255
-0.227370 -0.242285 -0.402755 -0.000000 -1.000000 -0.000000 0.366958 0.018014 255 255 255
-0.227370 -0.242285 -0.402755 -1.000000 0.000000 -0.000000 0.366958 0.018014 255 255 255
-0.227370 -0.242285 0.540916 -1.000000 0.000000 -0.000000 0.366958 0.736305 255 255 255
-0.227370 0.093390 0.540916 -1.000000 0.000000 -0.000000 0.111453 0.736306 255 255 255
-0.227370 0.093390 -0.402755 -1.000000 0.000000 -0.000000 0.111453 0.018014 255 255 255
0.143500 -0.239463 0.196119 0.000001 0.496258 -0.868175 0.208548 0.786871 255 255 255
0.150579 -0.239463 0.196119 0.000001 0.496258 -0.868175 0.220193 0.792124 255 255 255
0.158058 -0.284959 0.170114 0.000001 0.496258 -0.868175 0.216206 0.833785 255 255 255
0.136021 -0.284959 0.170114 0.000001 0.496258 -0.868175 0.179956 0.817433 255 255 255
0.150579 -0.239463 0.220732 -0.000001 0.496259 0.868174 0.232622 0.789175 255 255 255
0.143500 -0.239463 0.220732 -0.000001 0.496259 0.868174 0.240666 0.779251 255 255 255
0.136021 -0.284959 0.246738 -0.000001 0.496259 0.868174 0.279968 0.793705 255 255 255
0.158058 -0.284959 0.246738 -0.000001 0.496259 0.868174 0.254899 0.824605 255 255 255
0.143500 -0.239463 0.220732 -0.986755 0.162217 0.000000 0.240666 0.779251 255 255 255
0.143500 -0.239463 0.196119 -0.986755 0.162217 0.000000 0.240977 0.766481 255 255 255
0.136021 -0.284959 0.170114 -0.986755 0.162217 0.000000 0.280911 0.753955 255 255 255
0.136021 -0.284959 0.246738 -0.986755 0.162217 0.000000 0.279968 0.793705 255 255 255
0.150579 -0.239463 0.196119 0.986755 0.162217 0.000000 0.220193 0.792124 255 255 255
0.150579 -0.239463 0.220732 0.986755 0.162217 0.000000 0.232622 0.789175 255 255 255
0.158058 -0.284959 0.246738 0.986755 0.162217 0.000000 0.254899 0.824605 255 255 255
0.158058 -0.284959 0.170114 0.986755 0.162217 0.000000 0.216206 0.833785 255 255 255
0.136021 -0.284959 0.170114 0.000000 -1.000000 -0.000000 0.280911 0.753955 255 255 255
0.158058 -0.284959 0.170114 0.000000 -1.000000 -0.000000 0.320673 0.754854 255 255 255
0.158058 -0.284959 0.246738 0.000000 -1.000000 -0.000000 0.319728 0.794640 255 255 255
0.136021 -0.284959 0.246738 0.000000 -1.000000 -0.000000 0.279968 0.793705 255 255 255
-0.094437 -0.068527 0.668483 0.704398 0.704398 -0.087069 0.257114 0.986975 255 255 255
-0.102525 -0.076614 0.537635 0.704398 0.704398 -0.087069 0.254034 0.847751 255 255 255
-0.127348 -0.066332 0.537635 0.000000 0.996185 -0.087069 0.221103 0.847751 255 255 255
-0.127348 -0.054895 0.668483 0.000000 0.996185 -0.087069 0.221103 0.986975 255 255 255
-0.080805 -0.101437 0.668483 0.996185 0.000000 -0.087069 0.285082 0.986975 255 255 255
-0.092243 -0.101437 0.537635 0.996185 0.000031 -0.087069 0.282527 0.847751 255 255 255
-0.094437 -0.134348 0.668483 0.704398 -0.704398 -0.087069 0.257114 0.986975 255 255 255
-0.102525 -0.126260 0.537643 0.704428 -0.704367 -0.087069 0.254033 0.847761 255 255 255
-0.127348 -0.147980 0.668483 0.000000 -0.996185 -0.087069 0.221103 0.986975 255 255 255
-0.127348 -0.136542 0.537643 -0.000031 -0.996185 -0.087069 0.221103 0.847761 255 255 255
-0.160258 -0.134348 0.668483 -0.704398 -0.704398 -0.087069 0.185092 0.986975 255 255 255
-0.152171 -0.126260 0.537635 -0.704428 -0.704367 -0.087069 0.188172 0.847751 255 255 255
-0.173890 -0.101437 0.668483 -0.996185 0.000000 -0.087069 0.157123 0.986975 255 255 255
-0.162453 -0.101437 0.537635 -0.996185 0.000000 -0.087069 0.159678 0.847751 255 255 255
-0.160258 -0.068527 0.668483 -0.704398 0.704398 -0.087069 0.185092 0.986975 255 255 255
-0.152171 -0.076614 0.537635 -0.704398 0.704398 -0.087069 0.188172 0.847751 255 255 255
4 0 1 2 3
4 4 5 6 7
4 8 9 10 11
3 7 0 3
4 12 13 14 15
4 1 16 10 2
4 1 0 17 18
3 19 7 6
3 18 20 21
3 22 5 4
3 13 23 24
3 0 7 19
3 15 22 4
3 12 23 13
3 1 18 21
4 18 17 25 26
4 14 13 27 28
4 6 5 29 30
3 8 11 31
4 19 6 30 32
4 20 18 26 33
4 5 22 34 29
4 13 24 35 27
3 11 36 37
3 11 37 31
4 10 9 12 2
3 3 15 4
3 3 4 7
4 10 16 36 11
4 2 12 15 3
4 38 39 40 41
4 42 43 44 45
4 46 47 48 49
4 50 51 52 53
4 54 55 56 57
4 58 59 60 61
4 62 63 64 65
4 66 67 68 69
4 70 71 72 73
4 74 75 76 77
4 78 79 80 81
4 82 83 84 85
4 86 87 88 89
4 90 91 92 93
4 94 95 96 97
4 98 99 100 101
4 102 103 104 105
4 106 107 108 109
4 110 111 112 113
4 114 115 116 117
4 118 119 120 121
4 122 123 124 125
4 126 127 128 129
4 130 131 132 133
4 134 135 136 137
4 138 139 140 141
4 142 143 144 145
4 146 147 148 149
4 150 151 152 153
4 154 155 156 157
4 158 159 160 161
4 159 158 162 163
4 163 162 164 165
4 165 164 166 167
4 167 166 168 169
4 169 168 170 171
4 171 170 172 173
4 173 172 161 160
