ply
format ascii 1.0
comment Created by Blender 2.69 (sub 0) - www.blender.org, source file: ''
element vertex 24
property float x
property float y
property float z
property float nx
property float ny
property float nz
property float s
property float t
element face 6
property list uchar uint vertex_indices
end_header
-50.947021 -50.626709 -48.564899 0.000000 1.000000 0.000000 0.257388 0.654134
-50.947021 -50.626724 51.435101 0.000000 1.000000 0.000000 0.257388 0.904134
49.052979 -50.626724 51.435101 0.000000 1.000000 0.000000 0.507388 0.904134
49.052979 -50.626709 -48.564899 0.000000 1.000000 0.000000 0.507388 0.654134
-50.947021 -50.626724 51.435101 0.000000 0.000000 -1.000000 0.055851 0.189007
-50.947021 49.373276 51.435116 0.000000 0.000000 -1.000000 0.055851 0.439007
49.052979 49.373276 51.435116 0.000000 0.000000 -1.000000 0.305851 0.439007
49.052979 -50.626724 51.435101 0.000000 0.000000 -1.000000 0.305851 0.189007
-50.947021 49.373276 51.435116 0.000000 -1.000000 -0.000000 0.507425 0.904085
-50.947021 49.373291 -48.564884 0.000000 -1.000000 -0.000000 0.507425 0.654085
49.052979 49.373291 -48.564884 0.000000 -1.000000 -0.000000 0.257425 0.654085
49.052979 49.373276 51.435116 0.000000 -1.000000 -0.000000 0.257425 0.904085
-50.947021 49.373291 -48.564884 0.000000 -0.000000 1.000000 0.353723 0.245035
-50.947021 -50.626709 -48.564899 0.000000 -0.000000 1.000000 0.353723 0.495035
49.052979 -50.626709 -48.564899 0.000000 -0.000000 1.000000 0.603723 0.495035
49.052979 49.373291 -48.564884 0.000000 -0.000000 1.000000 0.603723 0.245035
49.052979 -50.626709 -48.564899 -1.000000 -0.000000 0.000000 0.256206 0.653901
49.052979 -50.626724 51.435101 -1.000000 -0.000000 0.000000 0.256206 0.903901
49.052979 49.373276 51.435116 -1.000000 -0.000000 0.000000 0.506206 0.903901
49.052979 49.373291 -48.564884 -1.000000 -0.000000 0.000000 0.506206 0.653901
-50.947021 -50.626724 51.435101 1.000000 0.000000 0.000000 0.505497 0.903901
-50.947021 -50.626709 -48.564899 1.000000 0.000000 0.000000 0.505497 0.653901
-50.947021 49.373291 -48.564884 1.000000 0.000000 0.000000 0.255496 0.653901
-50.947021 49.373276 51.435116 1.000000 0.000000 0.000000 0.255496 0.903901
4 0 1 2 3
4 4 5 6 7
4 8 9 10 11
4 12 13 14 15
4 16 17 18 19
4 20 21 22 23
