ply
format ascii 1.0
comment Created by Blender 2.69 (sub 0) - www.blender.org, source file: ''
element vertex 24
property float x
property float y
property float z
property float nx
property float ny
property float nz
property float s
property float t
element face 6
property list uchar uint vertex_indices
end_header
-16.000000 -16.000000 -0.000003 0.000000 1.000000 0.000000 0.288579 0.971680
-16.000000 -16.000002 15.999997 0.000000 1.000000 0.000000 0.288579 0.644433
16.000000 -16.000002 15.999997 0.000000 1.000000 0.000000 0.615827 0.644433
16.000000 -16.000000 -0.000003 0.000000 1.000000 0.000000 0.615827 0.971680
-16.000000 -16.000002 15.999997 0.000000 0.000000 -1.000000 0.552933 0.352419
-16.000000 15.999997 16.000002 0.000000 0.000000 -1.000000 0.225685 0.352419
16.000000 15.999997 16.000002 0.000000 0.000000 -1.000000 0.225685 0.025171
16.000000 -16.000002 15.999997 0.000000 0.000000 -1.000000 0.552932 0.025171
-16.000000 15.999997 16.000002 0.000000 -1.000000 -0.000000 0.481010 0.559111
-16.000000 16.000000 0.000003 0.000000 -1.000000 -0.000000 0.481010 0.886358
16.000000 16.000000 0.000003 0.000000 -1.000000 -0.000000 0.153763 0.886358
16.000000 15.999997 16.000002 0.000000 -1.000000 -0.000000 0.153763 0.559111
-16.000000 16.000000 0.000003 0.000000 -0.000000 1.000000 0.363704 0.403777
-16.000000 -16.000000 -0.000003 0.000000 -0.000000 1.000000 0.036456 0.403777
16.000000 -16.000000 -0.000003 0.000000 -0.000000 1.000000 0.036456 0.076529
16.000000 16.000000 0.000003 0.000000 -0.000000 1.000000 0.363704 0.076529
16.000000 -16.000000 -0.000003 -1.000000 -0.000000 0.000000 0.277159 0.983289
16.000000 -16.000002 15.999997 -1.000000 -0.000000 0.000000 0.277159 0.656041
16.000000 15.999997 16.000002 -1.000000 -0.000000 0.000000 0.604406 0.656041
16.000000 16.000000 0.000003 -1.000000 -0.000000 0.000000 0.604406 0.983289
-16.000000 -16.000002 15.999997 1.000000 0.000000 0.000000 0.380475 0.556464
-16.000000 -16.000000 -0.000003 1.000000 0.000000 0.000000 0.380475 0.883711
-16.000000 16.000000 0.000003 1.000000 0.000000 0.000000 0.053227 0.883711
-16.000000 15.999997 16.000002 1.000000 0.000000 0.000000 0.053227 0.556464
4 0 1 2 3
4 4 5 6 7
4 8 9 10 11
4 12 13 14 15
4 16 17 18 19
4 20 21 22 23
