ply
format ascii 1.0
comment Created by Blender 2.70 (sub 0) - www.blender.org, source file: ''
element vertex 24
property float x
property float y
property float z
property float nx
property float ny
property float nz
property float s
property float t
element face 6
property list uchar uint vertex_indices
end_header
-50.947021 -50.626709 -48.564899 0.000000 -1.000000 -0.000000 0.249540 0.334714
49.052979 -50.626709 -48.564899 0.000000 -1.000000 -0.000000 0.499540 0.334714
49.052979 -50.626724 51.435101 0.000000 -1.000000 -0.000000 0.499540 0.665031
-50.947021 -50.626724 51.435101 0.000000 -1.000000 -0.000000 0.249540 0.665031
-50.947021 -50.626724 51.435101 0.000000 -0.000000 1.000000 0.250395 0.665623
49.052979 -50.626724 51.435101 0.000000 -0.000000 1.000000 0.497953 0.665623
49.052979 49.373276 51.435116 0.000000 -0.000000 1.000000 0.497953 0.997910
-50.947021 49.373276 51.435116 0.000000 -0.000000 1.000000 0.250395 0.997910
-50.947021 49.373276 51.435116 0.000000 1.000000 0.000000 0.998751 0.666115
49.052979 49.373276 51.435116 0.000000 1.000000 0.000000 0.748751 0.666115
49.052979 49.373291 -48.564884 0.000000 1.000000 0.000000 0.748751 0.335529
-50.947021 49.373291 -48.564884 0.000000 1.000000 0.000000 0.998751 0.335529
49.052979 -50.626709 -48.564899 0.000000 0.000000 -1.000000 0.500415 0.335845
-50.947021 -50.626709 -48.564899 0.000000 0.000000 -1.000000 0.250415 0.335845
-50.947021 49.373291 -48.564884 0.000000 0.000000 -1.000000 0.250415 0.002492
49.052979 49.373291 -48.564884 0.000000 0.000000 -1.000000 0.500415 0.002492
49.052979 -50.626709 -48.564899 1.000000 0.000000 0.000000 0.498930 0.335734
49.052979 49.373291 -48.564884 1.000000 0.000000 0.000000 0.748930 0.335734
49.052979 49.373276 51.435116 1.000000 0.000000 0.000000 0.748930 0.666320
49.052979 -50.626724 51.435101 1.000000 0.000000 0.000000 0.498930 0.666320
-50.947021 49.373291 -48.564884 -1.000000 0.000000 -0.000000 -0.000485 0.336607
-50.947021 -50.626709 -48.564899 -1.000000 0.000000 -0.000000 0.249515 0.336607
-50.947021 -50.626724 51.435101 -1.000000 0.000000 -0.000000 0.249515 0.666382
-50.947021 49.373276 51.435116 -1.000000 0.000000 -0.000000 -0.000485 0.666382
4 0 1 2 3
4 4 5 6 7
4 8 9 10 11
4 12 13 14 15
4 16 17 18 19
4 20 21 22 23
