ply
format ascii 1.0
comment Created by Blender 2.69 (sub 0) - www.blender.org, source file: 'poltroncina.blend'
element vertex 157
property float x
property float y
property float z
property float nx
property float ny
property float nz
property float s
property float t
element face 82
property list uchar uint vertex_indices
end_header
0.295760 -0.353495 -0.005349 0.651662 -0.727042 0.216041 0.939849 0.329618
0.284785 0.018888 -0.005341 0.909574 0.266823 0.318461 0.740872 0.327437
0.184818 0.187528 -0.005341 0.596789 0.758568 0.261483 0.656425 0.274130
0.009875 0.240646 -0.005341 0.001831 0.965239 0.261330 0.628300 0.178526
-0.165068 0.187528 -0.005341 -0.595477 0.763695 0.249275 0.652704 0.081905
-0.276157 -0.353510 -0.005341 -0.652547 -0.732871 0.192511 0.933774 0.015410
-0.265035 0.018888 -0.005341 -0.914823 0.275430 0.295236 0.735025 0.025370
0.284785 0.018888 -0.005341 0.909574 0.266823 0.318461 0.578891 0.406794
0.295760 -0.353495 -0.005349 0.651662 -0.727042 0.216041 0.379775 0.406794
0.295907 -0.353510 -0.072292 0.717948 -0.696066 0.000855 0.379815 0.373686
0.284785 0.018888 -0.072292 0.960387 0.278634 0.000549 0.578981 0.373686
-0.276157 -0.353510 -0.005341 -0.652547 -0.732871 0.192511 0.778277 0.406794
-0.265035 0.018888 -0.005341 -0.914823 0.275430 0.295236 0.579159 0.406794
-0.265035 0.018888 -0.072292 -0.960356 0.278726 0.000000 0.579159 0.373686
-0.276157 -0.353510 -0.072292 -0.717551 -0.696463 0.000061 0.778322 0.373686
0.295760 -0.353495 -0.005349 0.651662 -0.727042 0.216041 0.694322 0.373095
-0.276157 -0.353510 -0.005341 -0.652547 -0.732871 0.192511 0.380056 0.373099
-0.276157 -0.353510 -0.072292 -0.717551 -0.696463 0.000061 0.380056 0.339989
0.295907 -0.353510 -0.072292 0.717948 -0.696066 0.000855 0.694403 0.339989
-0.165068 0.187528 -0.005341 -0.595477 0.763695 0.249275 0.479294 0.406794
-0.165068 0.187528 -0.072292 -0.617237 0.786767 0.000000 0.479294 0.373686
0.009875 0.240646 -0.005341 0.001831 0.965239 0.261330 0.379775 0.406794
0.009875 0.240646 -0.072292 0.000000 1.000000 0.000000 0.379815 0.373686
0.184818 0.187528 -0.005341 0.596789 0.758568 0.261483 0.678749 0.406794
0.184818 0.187528 -0.072292 0.617237 0.786767 0.000000 0.678840 0.373686
0.009875 0.240646 -0.005341 0.001831 0.965239 0.261330 0.778277 0.406794
0.009875 0.240646 -0.072292 0.000000 1.000000 0.000000 0.778322 0.373686
0.184818 0.187528 -0.074230 0.646596 0.760399 -0.060305 0.578500 0.289738
0.206483 0.150980 -0.074230 0.971465 -0.230567 -0.055055 0.555180 0.294311
0.196789 0.149155 -0.237612 0.965331 -0.259590 -0.026826 0.542759 0.219081
0.178581 0.179872 -0.237599 0.647816 0.761742 -0.008026 0.563046 0.215122
0.146716 0.192386 -0.237612 -0.483963 0.874508 -0.031220 0.583598 0.210825
0.146903 0.202418 -0.074230 -0.452284 0.890194 -0.054140 0.602093 0.284209
0.168333 0.127700 -0.074230 -0.073489 -0.997223 -0.009888 0.529002 0.296880
0.164726 0.129589 -0.237599 -0.092715 -0.994812 -0.041627 0.520574 0.222238
0.135996 0.155617 -0.074230 -0.952635 -0.304025 -0.004273 0.626959 0.276131
0.137549 0.153052 -0.237599 -0.947661 -0.316752 -0.039979 0.605038 0.205059
0.135996 0.155617 -0.074230 -0.952635 -0.304025 -0.004273 0.504270 0.299044
0.137549 0.153052 -0.237599 -0.947661 -0.316752 -0.039979 0.499833 0.223980
0.148012 0.161755 -0.402271 -0.952727 -0.301096 -0.040223 0.494796 0.146908
0.171675 0.141326 -0.402262 -0.069887 -0.996643 -0.042268 0.512743 0.145396
0.155994 0.196002 -0.402275 -0.444655 0.895077 -0.033021 0.564395 0.136032
0.148012 0.161755 -0.402271 -0.952727 -0.301096 -0.040223 0.582682 0.131332
0.199592 0.158362 -0.402275 0.974517 -0.222358 -0.028871 0.531323 0.142594
0.183738 0.185107 -0.402271 0.648091 0.761437 -0.012635 0.547662 0.139388
0.191068 0.156609 -0.527049 0.965026 -0.254555 -0.062349 0.522198 0.085775
0.178197 0.178322 -0.527049 0.646626 0.759575 -0.070009 0.536292 0.083097
0.155672 0.187168 -0.527049 -0.479843 0.875240 -0.060701 0.550564 0.079880
0.168403 0.142779 -0.527049 -0.092196 -0.995666 -0.009156 0.506552 0.087084
0.149193 0.159364 -0.527049 -0.948668 -0.316233 -0.002899 0.565481 0.075021
0.149193 0.159364 -0.527049 -0.948668 -0.316233 -0.002899 0.491842 0.088166
-0.151925 0.141326 -0.402262 0.069887 -0.996643 -0.042268 0.478044 0.148857
-0.148653 0.142779 -0.527049 0.092196 -0.995666 -0.009156 0.477344 0.090764
-0.129443 0.159364 -0.527049 0.948668 -0.316233 -0.002899 0.491942 0.090116
-0.128263 0.161755 -0.402271 0.952727 -0.301096 -0.040223 0.495877 0.148254
-0.136244 0.196002 -0.402275 0.444655 0.895077 -0.033021 0.426135 0.145659
-0.128263 0.161755 -0.402271 0.952727 -0.301096 -0.040223 0.407596 0.143164
-0.129443 0.159364 -0.527049 0.948668 -0.316233 -0.002899 0.417961 0.085760
-0.135922 0.187168 -0.527049 0.479843 0.875240 -0.060701 0.433203 0.088803
-0.179842 0.158362 -0.402275 -0.974517 -0.222358 -0.028871 0.459437 0.148264
-0.171318 0.156609 -0.527049 -0.965026 -0.254555 -0.062349 0.461798 0.091299
-0.158447 0.178322 -0.527049 -0.646626 0.759575 -0.070009 0.447619 0.090305
-0.163988 0.185107 -0.402271 -0.648091 0.761437 -0.012635 0.442989 0.147012
-0.177039 0.149155 -0.237612 -0.965331 -0.259590 -0.026826 0.457093 0.224848
-0.158831 0.179872 -0.237599 -0.647816 0.761742 -0.008026 0.436672 0.223315
-0.126966 0.192386 -0.237612 0.483963 0.874508 -0.031220 0.415951 0.221480
-0.144976 0.129589 -0.237599 0.092715 -0.994812 -0.041627 0.479288 0.225371
-0.117799 0.153052 -0.237599 0.947661 -0.316752 -0.039979 0.394186 0.218303
-0.117799 0.153052 -0.237599 0.947661 -0.316752 -0.039979 0.499898 0.224669
-0.116247 0.155617 -0.074230 0.952635 -0.304025 -0.004273 0.504270 0.299044
-0.148583 0.127700 -0.074230 0.073489 -0.997223 -0.009888 0.479684 0.299793
-0.116247 0.155617 -0.074230 0.952635 -0.304025 -0.004273 0.380891 0.290781
-0.127154 0.202418 -0.074230 0.452284 0.890194 -0.054140 0.406297 0.295834
-0.186733 0.150980 -0.074230 -0.971465 -0.230567 -0.055055 0.453629 0.300312
-0.165068 0.187528 -0.074230 -0.646596 0.760399 -0.060305 0.430153 0.298528
0.284785 0.018888 -0.005341 0.909574 0.266823 0.318461 0.291832 0.729776
0.184818 0.187528 -0.005341 0.596789 0.758568 0.261483 0.387348 0.748599
0.208122 0.320362 0.461684 0.494156 0.665731 0.559069 0.380537 0.979164
0.326999 0.145547 0.445585 0.764946 0.082553 0.638752 0.281956 0.952151
0.009875 0.240646 -0.005341 0.001831 0.965239 0.261330 0.484329 0.754305
-0.165068 0.187528 -0.005341 -0.595477 0.763695 0.249275 0.581309 0.748597
-0.207947 0.320362 0.461684 -0.502152 0.666738 0.550676 0.588123 0.979162
0.000087 0.377211 0.461684 -0.002747 0.840571 0.541673 0.484330 0.985271
-0.265035 0.018888 -0.005341 -0.914823 0.275430 0.295236 0.676829 0.729786
-0.326825 0.145547 0.445585 -0.775811 0.085635 0.625080 0.686708 0.952161
0.340051 -0.126048 0.258826 0.833552 -0.230934 0.501816 0.344833 0.444868
0.333525 -0.018874 0.366695 0.705802 -0.400800 0.584094 0.266215 0.431786
0.286972 -0.014458 0.366696 -0.646504 -0.440840 0.622608 0.266740 0.407438
0.292587 -0.122508 0.258827 -0.734703 -0.333293 0.590808 0.347201 0.419492
0.326999 0.145547 0.445585 0.764946 0.082553 0.638752 0.173274 0.420166
0.208122 0.320362 0.461684 0.494156 0.665731 0.559069 0.088079 0.355215
0.179076 0.289929 0.461684 -0.260384 -0.456923 0.850520 0.103718 0.341039
0.281357 0.149363 0.445585 -0.454817 -0.390484 0.800409 0.173025 0.396768
0.000087 0.377211 0.461684 -0.002747 0.840571 0.541673 0.060690 0.251700
-0.207947 0.320362 0.461684 -0.502152 0.666738 0.550676 0.084051 0.147277
-0.178908 0.289929 0.461684 0.258766 -0.448836 0.855312 0.100319 0.160791
0.000084 0.338842 0.461684 0.001709 -0.526749 0.850002 0.079662 0.251331
-0.326825 0.145547 0.445585 -0.775811 0.085635 0.625080 0.166601 0.079175
-0.281190 0.149363 0.445585 0.443098 -0.384625 0.809748 0.167316 0.102575
-0.333438 -0.018893 0.366700 -0.723746 -0.391430 0.568255 0.259013 0.063630
-0.286880 -0.014474 0.366700 0.627857 -0.443342 0.639699 0.260550 0.087950
0.295760 -0.353495 -0.005349 0.651662 -0.727042 0.216041 0.600161 0.460524
0.340051 -0.377195 0.215353 0.618549 -0.639027 0.457167 0.479768 0.469162
0.292587 -0.373859 0.210524 -0.562944 -0.653768 0.505631 0.483127 0.443563
0.255847 -0.350378 -0.014375 -0.816248 -0.574297 0.062319 0.605857 0.436625
-0.292570 -0.373873 0.210532 0.538865 -0.658681 0.525071 0.475389 0.043083
-0.292570 -0.122523 0.258834 0.705069 -0.341472 0.621448 0.340440 0.072531
-0.340051 -0.126064 0.258834 -0.853755 -0.215644 0.473861 0.337054 0.047255
-0.340051 -0.377211 0.215362 -0.639241 -0.634175 0.434889 0.470993 0.017616
0.340051 -0.377195 0.215353 0.618549 -0.639027 0.457167 0.065722 0.781040
0.295760 -0.353495 -0.005349 0.651662 -0.727042 0.216041 0.104185 0.680600
0.340051 -0.126048 0.258826 0.833552 -0.230934 0.501816 0.177419 0.832258
0.333525 -0.018874 0.366695 0.705802 -0.400800 0.584094 0.214662 0.895481
-0.276157 -0.353510 -0.005341 -0.652547 -0.732871 0.192511 0.864484 0.680607
-0.340051 -0.377211 0.215362 -0.639241 -0.634175 0.434889 0.902955 0.781046
-0.340051 -0.126064 0.258834 -0.853755 -0.215644 0.473861 0.791261 0.832272
-0.333438 -0.018893 0.366700 -0.723746 -0.391430 0.568255 0.754014 0.895492
0.281357 0.149363 0.445585 -0.454817 -0.390484 0.800409 0.655016 0.707968
0.179076 0.289929 0.461684 -0.260384 -0.456923 0.850520 0.573786 0.730532
0.160392 0.159093 -0.009975 -0.563799 -0.791314 0.236366 0.567913 0.497609
0.246403 0.053106 -0.009975 -0.934874 -0.323862 0.145116 0.635893 0.486298
0.000084 0.338842 0.461684 0.001709 -0.526749 0.850002 0.484328 0.735629
-0.178908 0.289929 0.461684 0.258766 -0.448836 0.855312 0.394870 0.730532
-0.140648 0.159093 -0.009975 0.554155 -0.791009 0.259224 0.400741 0.497609
0.009872 0.204795 -0.009975 -0.003601 -0.960570 0.277963 0.484327 0.502372
-0.281190 0.149363 0.445585 0.443098 -0.384625 0.809748 0.313669 0.707867
-0.226659 0.053106 -0.009975 0.924161 -0.332835 0.187384 0.332778 0.486196
-0.292570 -0.122523 0.258834 0.705069 -0.341472 0.621448 0.206009 0.590314
-0.292570 -0.373873 0.210532 0.538865 -0.658681 0.525071 0.093259 0.539685
-0.236229 -0.350391 -0.009975 0.805048 -0.579730 0.125675 0.128949 0.438300
-0.236229 -0.115728 -0.009975 0.975799 -0.092105 0.198248 0.239210 0.464441
-0.286880 -0.014474 0.366700 0.627857 -0.443342 0.639699 0.245204 0.652818
-0.231444 -0.041985 -0.009975 0.979644 -0.122745 0.158818 0.273991 0.472497
0.292587 -0.373859 0.210524 -0.562944 -0.653768 0.505631 0.875415 0.539781
0.292587 -0.122508 0.258827 -0.734703 -0.333293 0.590808 0.762666 0.590413
0.255847 -0.115715 -0.009975 -0.988891 -0.070803 0.130528 0.729452 0.464548
0.255847 -0.350378 -0.014375 -0.816248 -0.574297 0.062319 0.839711 0.438405
0.286972 -0.014458 0.366696 -0.646504 -0.440840 0.622608 0.723469 0.652916
0.251125 -0.041978 -0.009975 -0.989624 -0.097568 0.105228 0.694675 0.472598
-0.276157 -0.353510 -0.005341 -0.652547 -0.732871 0.192511 0.591751 0.021304
-0.236229 -0.350391 -0.009975 0.805048 -0.579730 0.125675 0.596070 0.045160
-0.222486 -0.266498 -0.526930 -0.316019 0.948393 -0.024903 0.280896 0.341575
-0.249530 -0.268059 -0.074230 -0.376324 0.926023 -0.028687 0.239161 0.126231
-0.183234 -0.333937 -0.074230 0.914701 -0.401624 -0.044221 0.294437 0.118639
-0.190196 -0.300648 -0.526930 0.941435 -0.334758 -0.039521 0.308595 0.337724
-0.257241 -0.337801 -0.074230 -0.714255 -0.691855 -0.105502 0.340859 0.116373
-0.222486 -0.300648 -0.526930 -0.717856 -0.688131 -0.105472 0.328831 0.336820
-0.249530 -0.268059 -0.074230 -0.376324 0.926023 -0.028687 0.380021 0.122709
-0.222486 -0.266498 -0.526930 -0.316019 0.948393 -0.024903 0.347896 0.339695
0.242236 -0.300648 -0.526930 0.717490 -0.688528 -0.105319 0.216866 0.130666
0.242236 -0.266498 -0.526930 0.316599 0.948210 -0.024812 0.235786 0.126953
0.269277 -0.268059 -0.074230 0.376904 0.925779 -0.028626 0.277444 0.342312
0.276851 -0.337789 -0.074230 0.713828 -0.692312 -0.105350 0.238615 0.350358
0.209946 -0.300648 -0.526930 -0.941435 -0.334788 -0.039521 0.196610 0.130665
0.202981 -0.333937 -0.074230 -0.914701 -0.401654 -0.044221 0.192224 0.350163
0.242236 -0.266498 -0.526930 0.316599 0.948210 -0.024812 0.168767 0.128051
0.269277 -0.268059 -0.074230 0.376904 0.925779 -0.028626 0.136665 0.345040
3 0 1 2
3 3 4 5
3 3 5 0
3 4 6 5
3 2 3 0
4 7 8 9 10
4 11 12 13 14
4 15 16 17 18
4 12 19 20 13
4 19 21 22 20
4 23 7 10 24
4 25 23 24 26
4 27 28 29 30
4 27 30 31 32
4 33 34 29 28
4 35 32 31 36
4 37 38 34 33
4 34 38 39 40
4 31 41 42 36
4 29 34 40 43
4 31 30 44 41
4 29 43 44 30
4 43 45 46 44
4 41 44 46 47
4 43 40 48 45
4 41 47 49 42
4 40 39 50 48
4 51 52 53 54
4 55 56 57 58
4 59 60 52 51
4 55 58 61 62
4 59 62 61 60
4 63 64 62 59
4 65 55 62 64
4 63 59 51 66
4 65 67 56 55
4 66 51 54 68
4 69 70 66 68
4 71 67 65 72
4 70 73 63 66
4 74 72 65 64
4 74 64 63 73
4 75 76 77 78
4 79 80 81 82
4 80 83 84 81
4 76 79 82 77
4 85 86 87 88
4 89 90 91 92
4 93 94 95 96
4 94 97 98 95
4 97 99 100 98
4 90 93 96 91
4 101 102 103 104
4 105 106 107 108
4 99 107 106 100
4 102 85 88 103
4 86 89 92 87
3 75 109 110
3 75 111 109
3 75 112 111
3 75 78 112
3 83 113 114
3 83 114 115
3 83 115 116
3 83 116 84
4 117 118 119 120
4 121 122 123 124
4 122 125 126 123
4 118 121 124 119
4 127 128 129 130
4 125 131 132 126
4 131 127 130 132
4 133 134 135 136
4 137 117 120 138
4 134 137 138 135
4 139 140 105 108
4 141 142 143 144
4 144 143 145 146
4 146 145 147 148
4 149 150 151 152
4 153 149 152 154
4 155 153 154 156
