ply
format ascii 1.0
comment Created by Blender 2.69 (sub 0) - www.blender.org, source file: 'puff.blend'
element vertex 48
property float x
property float y
property float z
property float nx
property float ny
property float nz
property float s
property float t
element face 29
property list uchar uint vertex_indices
end_header
-0.376601 -0.318243 -0.172559 -0.835292 -0.327219 -0.441786 0.693958 0.930694
-0.376602 -0.318243 0.180187 -0.878536 -0.329661 0.345622 0.985095 0.930694
-0.376601 0.318243 0.180187 -0.878536 0.329661 0.345622 0.985095 0.405372
-0.376602 0.318243 -0.172559 -0.835292 0.327219 -0.441786 0.693957 0.405372
-0.322996 0.371849 -0.172559 -0.327219 0.835292 -0.441786 0.071775 0.051917
-0.322996 0.371849 0.180187 -0.328501 0.841670 0.428541 0.071776 0.343054
0.322996 0.371848 0.180187 0.289773 0.826777 0.482101 0.604942 0.343054
0.322996 0.371848 -0.172559 0.327219 0.835292 -0.441786 0.604942 0.051917
0.376602 0.318243 -0.172559 0.835292 0.327219 -0.441786 0.693957 0.405373
0.376602 0.318243 0.180187 0.779809 0.305612 0.546281 0.985095 0.405373
0.376602 -0.318243 0.180187 0.779809 -0.305612 0.546281 0.985095 0.930695
0.376602 -0.318243 -0.172559 0.835292 -0.327219 -0.441786 0.693958 0.930695
0.322996 -0.371849 -0.172559 0.327219 -0.835292 -0.441786 0.604942 0.051917
0.322996 -0.371849 0.180187 0.289773 -0.826777 0.482101 0.604942 0.343054
-0.322996 -0.371848 0.180187 -0.328501 -0.841670 0.428541 0.071775 0.343054
-0.322996 -0.371849 -0.172559 -0.327219 -0.835292 -0.441786 0.071776 0.051917
0.322996 -0.318243 -0.204066 0.330332 -0.330332 -0.884152 0.667953 0.930695
0.322996 0.318243 -0.204066 0.330332 0.330332 -0.884152 0.667952 0.405373
0.322996 -0.318243 -0.204066 0.330332 -0.330332 -0.884152 0.604942 0.025912
-0.322996 -0.318243 -0.204066 -0.330332 -0.330332 -0.884152 0.071776 0.025912
-0.322996 0.318243 -0.204066 -0.330332 0.330332 -0.884152 0.667952 0.405372
-0.322996 -0.318243 -0.204066 -0.330332 -0.330332 -0.884152 0.667953 0.930694
0.322996 0.318243 -0.204066 0.330332 0.330332 -0.884152 0.604942 0.025912
-0.322996 0.318243 -0.204066 -0.330332 0.330332 -0.884152 0.071775 0.025912
-0.337816 -0.327218 0.215890 -0.306162 -0.283212 0.908841 0.056547 0.404268
-0.322996 -0.371848 0.180187 -0.328501 -0.841670 0.428541 0.068778 0.367432
0.322996 -0.371849 0.180187 0.289773 -0.826777 0.482101 0.601946 0.367432
0.337815 -0.327218 0.189480 0.176641 -0.177770 0.968078 0.614177 0.404268
0.337816 0.327218 0.189480 0.176641 0.177770 0.968078 0.614177 0.944403
0.376602 -0.318243 0.180187 0.779809 -0.305612 0.546281 0.646189 0.411675
0.376602 0.318243 0.180187 0.779809 0.305612 0.546281 0.646189 0.936996
0.322996 0.371848 0.180187 0.289773 0.826777 0.482101 0.601946 0.981239
-0.322996 0.371849 0.180187 -0.328501 0.841670 0.428541 0.068779 0.981239
-0.337815 0.327218 0.215890 -0.306162 0.283212 0.908841 0.056548 0.944404
-0.376601 0.318243 0.180187 -0.878536 0.329661 0.345622 0.024537 0.936996
-0.376602 -0.318243 0.180187 -0.878536 -0.329661 0.345622 0.024536 0.411675
-0.376601 -0.318243 -0.172559 -0.835292 -0.327219 -0.441786 0.027532 0.051917
-0.376602 -0.318243 0.180187 -0.878536 -0.329661 0.345622 0.027532 0.343054
-0.376601 0.318243 0.180187 -0.878536 0.329661 0.345622 0.027533 0.343054
-0.376602 0.318243 -0.172559 -0.835292 0.327219 -0.441786 0.027532 0.051917
0.376602 0.318243 0.180187 0.779809 0.305612 0.546281 0.649185 0.343054
0.376602 0.318243 -0.172559 0.835292 0.327219 -0.441786 0.649185 0.051917
0.376602 -0.318243 0.180187 0.779809 -0.305612 0.546281 0.649185 0.343054
0.376602 -0.318243 -0.172559 0.835292 -0.327219 -0.441786 0.649185 0.051917
0.280567 -0.286686 0.197885 0.059267 0.047334 0.997101 0.566927 0.437721
-0.280567 -0.286686 0.197885 0.114200 0.047456 0.992309 0.103797 0.437721
0.280567 0.286686 0.197885 0.059267 -0.047334 0.997101 0.566928 0.910951
-0.280567 0.286686 0.197885 0.114200 -0.047456 0.992309 0.103798 0.910952
4 0 1 2 3
4 4 5 6 7
4 8 9 10 11
4 12 13 14 15
4 16 17 8 11
4 18 12 15 19
4 20 21 0 3
4 7 22 23 4
4 24 25 26 27
4 28 27 29 30
4 28 31 32 33
4 24 33 34 35
4 36 15 14 37
4 38 5 4 39
4 6 40 41 7
4 42 13 12 43
3 22 7 41
3 18 43 12
3 19 15 36
3 23 39 4
3 24 35 25
3 27 26 29
3 28 30 31
3 33 32 34
4 24 27 44 45
4 27 28 46 44
4 28 33 47 46
4 33 24 45 47
4 45 44 46 47
