ply
format ascii 1.0
comment Created by Blender 2.69 (sub 0) - www.blender.org, source file: 'Tavolo1.blend'
element vertex 164
property float x
property float y
property float z
property float nx
property float ny
property float nz
property float s
property float t
element face 41
property list uchar uint vertex_indices
end_header
0.910127 0.563190 0.478417 0.000000 -0.000000 1.000000 0.900312 0.927843
-0.910127 0.563190 0.478417 0.000000 -0.000000 1.000000 0.100504 0.927843
-0.910127 -0.563190 0.478417 0.000000 -0.000000 1.000000 0.100503 0.432919
0.910126 -0.563190 0.478417 0.000000 -0.000000 1.000000 0.900312 0.432918
0.874625 0.541221 0.384768 0.822867 -0.000000 -0.568234 0.952514 0.918190
0.919683 0.569103 0.450017 0.822867 -0.000000 -0.568234 0.913703 0.930441
0.919683 -0.569103 0.450017 0.822867 -0.000000 -0.568234 0.913702 0.430320
0.874625 -0.541221 0.384768 0.822867 -0.000000 -0.568234 0.952513 0.442571
0.874625 -0.541221 0.384768 -0.000000 -0.919561 -0.392946 0.884713 0.379635
0.919683 -0.569103 0.450017 -0.000000 -0.919561 -0.392946 0.904511 0.417340
-0.919683 -0.569103 0.450017 -0.000000 -0.919561 -0.392946 0.096305 0.417340
-0.874625 -0.541221 0.384768 -0.000000 -0.919561 -0.392946 0.116103 0.379635
-0.874625 -0.541221 0.384768 -0.822867 0.000000 -0.568235 0.048302 0.442572
-0.919683 -0.569103 0.450017 -0.822867 0.000000 -0.568235 0.087113 0.430320
-0.919683 0.569103 0.450017 -0.822867 0.000000 -0.568235 0.087113 0.930441
-0.874624 0.541221 0.384768 -0.822867 0.000000 -0.568235 0.048302 0.918190
0.910127 0.563190 0.478417 0.000000 0.979002 0.203850 0.900312 0.927843
0.919683 0.569103 0.450017 0.000000 0.979002 0.203850 0.904511 0.943421
-0.919683 0.569103 0.450017 0.000000 0.979002 0.203850 0.096305 0.943422
-0.910127 0.563190 0.478417 0.000000 0.979002 0.203850 0.100504 0.927843
0.919683 0.569103 0.450017 0.000000 0.919563 -0.392943 0.904511 0.943421
0.874625 0.541221 0.384768 0.000000 0.919563 -0.392943 0.884713 0.981127
-0.874624 0.541221 0.384768 0.000000 0.919563 -0.392943 0.116103 0.981127
-0.919683 0.569103 0.450017 0.000000 0.919563 -0.392943 0.096305 0.943422
-0.919683 -0.569103 0.450017 -0.947785 0.000000 0.318910 0.087113 0.430320
-0.910127 -0.563190 0.478417 -0.947785 0.000000 0.318910 0.100503 0.432919
-0.910127 0.563190 0.478417 -0.947785 0.000000 0.318910 0.100504 0.927843
-0.919683 0.569103 0.450017 -0.947785 0.000000 0.318910 0.087113 0.930441
0.919683 -0.569103 0.450017 -0.000000 -0.979003 0.203845 0.904511 0.417340
0.910126 -0.563190 0.478417 -0.000000 -0.979003 0.203845 0.900312 0.432918
-0.910127 -0.563190 0.478417 -0.000000 -0.979003 0.203845 0.100503 0.432919
-0.919683 -0.569103 0.450017 -0.000000 -0.979003 0.203845 0.096305 0.417340
0.919683 0.569103 0.450017 0.947782 -0.000001 0.318918 0.913703 0.930441
0.910127 0.563190 0.478417 0.947782 -0.000001 0.318918 0.900312 0.927843
0.910126 -0.563190 0.478417 0.947782 -0.000001 0.318918 0.900312 0.432918
0.919683 -0.569103 0.450017 0.947782 -0.000001 0.318918 0.913702 0.430320
-0.755462 -0.420281 -0.309958 -0.999194 -0.000002 -0.040150 0.495376 0.284085
-0.755462 -0.461721 -0.309958 -0.999194 -0.000002 -0.040150 0.495731 0.262124
-0.786541 -0.492801 0.463506 -0.999194 -0.000002 -0.040150 0.889346 0.263263
-0.786541 -0.389201 0.463506 -0.999194 -0.000002 -0.040150 0.889036 0.312233
-0.714022 -0.420281 -0.309958 0.999194 0.000000 -0.040150 0.495322 0.218198
-0.682942 -0.389202 0.463506 0.999194 0.000000 -0.040150 0.888988 0.165317
-0.682942 -0.492801 0.463506 0.999194 0.000000 -0.040150 0.889331 0.214284
-0.714022 -0.461721 -0.309958 0.999194 0.000000 -0.040150 0.495713 0.240158
-0.755462 -0.420281 -0.309958 0.000001 0.999194 -0.040150 0.495376 0.284085
-0.786541 -0.389201 0.463506 0.000001 0.999194 -0.040150 0.889036 0.312233
-0.682942 -0.389202 0.463506 0.000001 0.999194 -0.040150 0.888400 0.361167
-0.714022 -0.420281 -0.309958 0.000001 0.999194 -0.040150 0.494648 0.306030
-0.786541 -0.492801 0.463506 -0.000000 -0.999194 -0.040150 0.889346 0.263263
-0.755462 -0.461721 -0.309958 -0.000000 -0.999194 -0.040150 0.495731 0.262124
-0.714022 -0.461721 -0.309958 -0.000000 -0.999194 -0.040150 0.495713 0.240158
-0.682942 -0.492801 0.463506 -0.000000 -0.999194 -0.040150 0.889331 0.214284
0.755463 -0.420281 -0.309958 0.999194 0.000000 -0.040150 0.099532 0.093610
0.786542 -0.389201 0.463506 0.999194 0.000000 -0.040150 0.493245 0.062501
0.786542 -0.492801 0.463506 0.999194 0.000000 -0.040150 0.493588 0.111465
0.755463 -0.461721 -0.309958 0.999194 0.000000 -0.040150 0.099924 0.115568
0.714023 -0.420281 -0.309958 -0.999194 0.000000 -0.040150 0.099589 0.159492
0.714023 -0.461721 -0.309958 -0.999194 0.000000 -0.040150 0.099943 0.137532
0.682943 -0.492801 0.463506 -0.999194 0.000000 -0.040150 0.493604 0.160444
0.682943 -0.389202 0.463506 -0.999194 0.000000 -0.040150 0.493295 0.209410
0.755463 -0.420281 -0.309958 -0.000001 0.999194 -0.040150 0.099532 0.093610
0.714023 -0.420281 -0.309958 -0.000001 0.999194 -0.040150 0.098766 0.071668
0.682943 -0.389202 0.463506 -0.000001 0.999194 -0.040150 0.492576 0.013574
0.786542 -0.389201 0.463506 -0.000001 0.999194 -0.040150 0.493245 0.062501
0.786542 -0.492801 0.463506 0.000000 -0.999194 -0.040150 0.493588 0.111465
0.682943 -0.492801 0.463506 0.000000 -0.999194 -0.040150 0.493604 0.160444
0.714023 -0.461721 -0.309958 0.000000 -0.999194 -0.040150 0.099943 0.137532
0.755463 -0.461721 -0.309958 0.000000 -0.999194 -0.040150 0.099924 0.115568
-0.755462 0.420281 -0.309957 -0.999194 0.000002 -0.040150 0.493639 0.284052
-0.786541 0.389201 0.463507 -0.999194 0.000002 -0.040150 0.100167 0.314991
-0.786541 0.492801 0.463507 -0.999194 0.000002 -0.040150 0.099825 0.266037
-0.755462 0.461721 -0.309957 -0.999194 0.000002 -0.040150 0.493249 0.262099
-0.714022 0.420281 -0.309957 0.999194 0.000000 -0.040150 0.493587 0.218184
-0.714022 0.461721 -0.309957 0.999194 0.000000 -0.040150 0.493232 0.240139
-0.682942 0.492801 0.463507 0.999194 0.000000 -0.040150 0.099809 0.217058
-0.682942 0.389201 0.463507 0.999194 0.000000 -0.040150 0.100120 0.168102
-0.755462 0.420281 -0.309957 0.000001 -0.999194 -0.040150 0.493639 0.284052
-0.714022 0.420281 -0.309957 0.000001 -0.999194 -0.040150 0.494402 0.305990
-0.682942 0.389201 0.463507 0.000001 -0.999194 -0.040150 0.100834 0.363907
-0.786541 0.389201 0.463507 0.000001 -0.999194 -0.040150 0.100167 0.314991
-0.786541 0.492801 0.463507 0.000000 0.999194 -0.040150 0.099825 0.266037
-0.682942 0.492801 0.463507 0.000000 0.999194 -0.040150 0.099809 0.217058
-0.714022 0.461721 -0.309957 0.000000 0.999194 -0.040150 0.493232 0.240139
-0.755462 0.461721 -0.309957 0.000000 0.999194 -0.040150 0.493249 0.262099
0.755463 0.420281 -0.309958 0.999194 0.000000 -0.040150 0.891693 0.090711
0.755462 0.461721 -0.309958 0.999194 0.000000 -0.040150 0.891338 0.112673
0.786542 0.492801 0.463506 0.999194 0.000000 -0.040150 0.497660 0.111577
0.786542 0.389201 0.463506 0.999194 0.000000 -0.040150 0.497970 0.062605
0.714023 0.420281 -0.309958 -0.999194 0.000000 -0.040150 0.891749 0.156601
0.682943 0.389202 0.463506 -0.999194 0.000000 -0.040150 0.498019 0.209526
0.682943 0.492801 0.463506 -0.999194 0.000000 -0.040150 0.497676 0.160557
0.714023 0.461721 -0.309958 -0.999194 0.000000 -0.040150 0.891357 0.134640
0.755463 0.420281 -0.309958 -0.000001 -0.999194 -0.040150 0.891693 0.090711
0.786542 0.389201 0.463506 -0.000001 -0.999194 -0.040150 0.497970 0.062605
0.682943 0.389202 0.463506 -0.000001 -0.999194 -0.040150 0.498606 0.013668
0.714023 0.420281 -0.309958 -0.000001 -0.999194 -0.040150 0.892421 0.068765
0.786542 0.492801 0.463506 0.000001 0.999194 -0.040151 0.497660 0.111577
0.755462 0.461721 -0.309958 0.000001 0.999194 -0.040151 0.891338 0.112673
0.714023 0.461721 -0.309958 0.000001 0.999194 -0.040151 0.891357 0.134640
0.682943 0.492801 0.463506 0.000001 0.999194 -0.040151 0.497676 0.160557
0.755462 0.461721 -0.309958 0.000003 0.978356 -0.206928 0.976891 0.229568
0.743031 0.449289 -0.368736 0.000003 0.978356 -0.206928 0.916416 0.212366
0.726455 0.449289 -0.368736 0.000003 0.978356 -0.206928 0.916988 0.200536
0.714023 0.461721 -0.309958 0.000003 0.978356 -0.206928 0.979744 0.199979
0.714023 0.420281 -0.309958 0.000000 -0.978356 -0.206927 0.976077 0.170454
0.726455 0.432713 -0.368736 0.000000 -0.978356 -0.206927 0.916091 0.188720
0.743031 0.432713 -0.368736 0.000000 -0.978356 -0.206927 0.913740 0.177128
0.755463 0.420281 -0.309958 0.000000 -0.978356 -0.206927 0.964506 0.141536
0.714023 0.461721 -0.309958 -0.978356 0.000000 -0.206930 0.979744 0.199979
0.726455 0.449289 -0.368736 -0.978356 0.000000 -0.206930 0.916988 0.200536
0.726455 0.432713 -0.368736 -0.978356 0.000000 -0.206930 0.916091 0.188720
0.714023 0.420281 -0.309958 -0.978356 0.000000 -0.206930 0.976077 0.170454
0.755463 0.420281 -0.309958 0.978356 0.000000 -0.206928 0.966119 0.258715
0.743031 0.432713 -0.368736 0.978356 0.000000 -0.206928 0.914386 0.224000
0.743031 0.449289 -0.368736 0.978356 0.000000 -0.206928 0.916416 0.212366
0.755462 0.461721 -0.309958 0.978356 0.000000 -0.206928 0.976891 0.229568
-0.755462 0.461721 -0.309957 0.000000 0.978356 -0.206927 0.979745 0.199970
-0.714022 0.461721 -0.309957 0.000000 0.978356 -0.206927 0.976891 0.229559
-0.726454 0.449289 -0.368735 0.000000 0.978356 -0.206927 0.916420 0.212356
-0.743030 0.449289 -0.368735 0.000000 0.978356 -0.206927 0.916992 0.200526
-0.714022 0.420281 -0.309957 0.000000 -0.978356 -0.206928 0.964507 0.141528
-0.755462 0.420281 -0.309957 0.000000 -0.978356 -0.206928 0.976078 0.170446
-0.743030 0.432713 -0.368735 0.000000 -0.978356 -0.206928 0.916095 0.188710
-0.726454 0.432713 -0.368735 0.000000 -0.978356 -0.206928 0.913744 0.177118
-0.714022 0.461721 -0.309957 0.978356 0.000000 -0.206927 0.976891 0.229559
-0.714022 0.420281 -0.309957 0.978356 0.000000 -0.206927 0.966119 0.258705
-0.726454 0.432713 -0.368735 0.978356 0.000000 -0.206927 0.914389 0.223990
-0.726454 0.449289 -0.368735 0.978356 0.000000 -0.206927 0.916420 0.212356
-0.755462 0.420281 -0.309957 -0.978356 0.000000 -0.206927 0.976078 0.170446
-0.755462 0.461721 -0.309957 -0.978356 0.000000 -0.206927 0.979745 0.199970
-0.743030 0.449289 -0.368735 -0.978356 0.000000 -0.206927 0.916992 0.200526
-0.743030 0.432713 -0.368735 -0.978356 0.000000 -0.206927 0.916095 0.188710
0.755463 -0.461721 -0.309958 0.000001 -0.978356 -0.206928 0.976081 0.170415
0.714023 -0.461721 -0.309958 0.000001 -0.978356 -0.206928 0.979755 0.199938
0.726455 -0.449289 -0.368736 0.000001 -0.978356 -0.206928 0.917010 0.200534
0.743031 -0.449289 -0.368736 0.000001 -0.978356 -0.206928 0.916110 0.188719
0.714023 -0.420281 -0.309958 0.000000 0.978356 -0.206928 0.976911 0.229527
0.755463 -0.420281 -0.309958 0.000000 0.978356 -0.206928 0.966147 0.258673
0.743031 -0.432713 -0.368736 0.000000 0.978356 -0.206928 0.914415 0.223998
0.726455 -0.432713 -0.368736 0.000000 0.978356 -0.206928 0.916442 0.212364
0.714023 -0.461721 -0.309958 -0.978356 0.000000 -0.206930 0.979755 0.199938
0.714023 -0.420281 -0.309958 -0.978356 0.000000 -0.206930 0.976911 0.229527
0.726455 -0.432713 -0.368736 -0.978356 0.000000 -0.206930 0.916442 0.212364
0.726455 -0.449289 -0.368736 -0.978356 0.000000 -0.206930 0.917010 0.200534
0.755463 -0.420281 -0.309958 0.978356 0.000000 -0.206928 0.964502 0.141501
0.755463 -0.461721 -0.309958 0.978356 0.000000 -0.206928 0.976081 0.170415
0.743031 -0.449289 -0.368736 0.978356 0.000000 -0.206928 0.916110 0.188719
0.743031 -0.432713 -0.368736 0.978356 0.000000 -0.206928 0.913756 0.177130
-0.755462 -0.461721 -0.309958 -0.000002 -0.978356 -0.206927 0.979756 0.199939
-0.743030 -0.449289 -0.368736 -0.000002 -0.978356 -0.206927 0.917011 0.200533
-0.726454 -0.449289 -0.368736 -0.000002 -0.978356 -0.206927 0.916111 0.188719
-0.714022 -0.461721 -0.309958 -0.000002 -0.978356 -0.206927 0.976081 0.170417
-0.714022 -0.420281 -0.309958 0.000000 0.978356 -0.206929 0.966146 0.258674
-0.726454 -0.432713 -0.368736 0.000000 0.978356 -0.206929 0.914415 0.223997
-0.743030 -0.432713 -0.368736 0.000000 0.978356 -0.206929 0.916443 0.212363
-0.755462 -0.420281 -0.309958 0.000000 0.978356 -0.206929 0.976910 0.229529
-0.714022 -0.461721 -0.309958 0.978356 0.000000 -0.206928 0.976081 0.170417
-0.726454 -0.449289 -0.368736 0.978356 0.000000 -0.206928 0.916111 0.188719
-0.726454 -0.432713 -0.368736 0.978356 0.000000 -0.206928 0.913758 0.177128
-0.714022 -0.420281 -0.309958 0.978356 0.000000 -0.206928 0.964502 0.141503
-0.755462 -0.420281 -0.309958 -0.978356 0.000000 -0.206927 0.976910 0.229529
-0.743030 -0.432713 -0.368736 -0.978356 0.000000 -0.206927 0.916443 0.212363
-0.743030 -0.449289 -0.368736 -0.978356 0.000000 -0.206927 0.917011 0.200533
-0.755462 -0.461721 -0.309958 -0.978356 0.000000 -0.206927 0.979756 0.199939
4 0 1 2 3
4 4 5 6 7
4 8 9 10 11
4 12 13 14 15
4 16 17 18 19
4 20 21 22 23
4 24 25 26 27
4 28 29 30 31
4 32 33 34 35
4 36 37 38 39
4 40 41 42 43
4 44 45 46 47
4 48 49 50 51
4 52 53 54 55
4 56 57 58 59
4 60 61 62 63
4 64 65 66 67
4 68 69 70 71
4 72 73 74 75
4 76 77 78 79
4 80 81 82 83
4 84 85 86 87
4 88 89 90 91
4 92 93 94 95
4 96 97 98 99
4 100 101 102 103
4 104 105 106 107
4 108 109 110 111
4 112 113 114 115
4 116 117 118 119
4 120 121 122 123
4 124 125 126 127
4 128 129 130 131
4 132 133 134 135
4 136 137 138 139
4 140 141 142 143
4 144 145 146 147
4 148 149 150 151
4 152 153 154 155
4 156 157 158 159
4 160 161 162 163
